<svg xmlns="http://www.w3.org/2000/svg" viewBox="0 0 416.67 352.98"><defs><style>.a{fill:#85c78b;}.b{fill:#275739;}</style></defs><circle class="a" cx="176.49" cy="176.49" r="176.46"/><path class="b" d="M398.81,247.5c.18,3.21.26,6.41.23,9.58,0,1.47,0,2.92-.07,4.37L249,338.07,189.8,310.2l-74.57,42.25c-1.23-1.58-2.41-3.18-3.56-4.82-.63-.85-1.22-1.73-1.81-2.61L94,354l1.77,2.6c1.14,1.64,2.31,3.28,3.52,4.87,1.84,2.47,3.73,4.88,5.7,7.23a176.53,176.53,0,0,0,168.33,60.9c79.13-14.82,136.07-80.61,143.22-157v0c.46-4.73.72-9.47.76-14.28s-.07-9.66-.42-14.52c-.14-1.89-.3-3.76-.5-5.65Z" transform="translate(-64.25 -79.71)"/><path class="b" d="M89.21,301.62,73,310.82A170.18,170.18,0,0,0,79.61,328l15.93-9A156.25,156.25,0,0,1,89.21,301.62Z" transform="translate(-64.25 -79.71)"/><path class="b" d="M82.58,259.74c-.07-3.38,0-6.74.1-10.07,3-72,55.21-135.19,129-149,79.06-14.81,155.6,32.19,179.69,106.79l16.35-8.53C379.82,117.44,295.42,66.43,208.3,82.75,122.29,98.87,62.48,175.24,64.38,260c.05,3,.18,5.91.42,8.88q.39,5.55,1.16,11.15l17.23-9.76Q82.71,265,82.58,259.74Z" transform="translate(-64.25 -79.71)"/><path class="b" d="M243.59,195.84l-23.12,12.39,29.48,8.9-22.49,12.06-59.35-27.93L82.68,249.67,64.38,260c.05,3,.18,5.91.42,8.88q.39,5.55,1.16,11.15l17.23-9.76,11.56-6.55,74.14-42L228,249.57l30.58-16.38-8.92,29.48,23.11-12.38,12.64-41.81Z" transform="translate(-64.25 -79.71)"/><path class="b" d="M325.92,207.12,302.8,219.5l29.49,8.91h0l-95.4,51.11-59.34-27.93-70.75,40.08-17.58,9.95L73,310.82A170.18,170.18,0,0,0,79.61,328l15.93-9,18.51-10.51,64.27-36.41,59.09,27.82,103.48-55.43L332,274l23.11-12.38,12.64-41.81Z" transform="translate(-64.25 -79.71)"/><path class="b" d="M439.12,201.21,416,213.59l29.49,8.91-7.73,4.13,0,0-21.4,11.47-17.52,9.38-12.66,6.79-137.4,73.6L189.41,300l-63.5,36-16,9.09L94,354l1.77,2.6c1.14,1.64,2.31,3.28,3.52,4.87,1.84,2.47,3.73,4.88,5.7,7.23l16.12-9.14,69.12-39.15,59.09,27.82,149.31-80,14.07-7.53,4.59-2.46,36.84-19.74h0L445.17,268l23.11-12.39,12.64-41.8Z" transform="translate(-64.25 -79.71)"/></svg>