<svg xmlns="http://www.w3.org/2000/svg" xmlns:xlink="http://www.w3.org/1999/xlink" viewBox="0 0 956.06 780.14"><defs><style>.a,.f,.g,.h,.i{fill:none;}.b{clip-path:url(#a);}.c{fill:#d8f2c0;}.d{clip-path:url(#b);}.e{fill:#c1e29a;}.f,.g,.h,.i{stroke:#fff;stroke-miterlimit:10;}.f,.i{stroke-width:1.36px;}.f{stroke-dasharray:2.72 4.08 2.72 4.08;}.g{stroke-width:2.72px;}.h{stroke-width:2.04px;}.j{fill:#9fbe37;}.k{fill:#507533;}</style><clipPath id="a" transform="translate(98.93 130.61)"><rect class="a" x="-38" y="-3" width="826" height="506"/></clipPath><clipPath id="b" transform="translate(98.93 130.61)"><rect class="a" x="122.54" y="-163.54" width="504.92" height="826" transform="translate(125.54 624.46) rotate(-90)"/></clipPath></defs><g class="b"><rect class="c" x="60.93" y="127.61" width="826" height="506"/><g class="d"><path class="e" d="M44.61,603.68c-44.83-.42-88.93-24.93-115.51-64.2s-35-92.37-22.06-139.06c20.31-73.33,89-121.81,158.75-132a236.43,236.43,0,0,1,130.4,18.29c18,8.05,35.51,18.69,48.28,34.66,13.1,16.37,20.41,37.42,24.25,58.72,13.55,75.27-19.32,159.94-82,195.06C153,594,114.18,598.24,76.41,602.13l-62.33,6.42" transform="translate(98.93 130.61)"/><path class="e" d="M656.65,193c-38.74-1.51-76.33-23.83-98.45-58.45S529.94,53.81,542.14,13.78c19.15-62.86,79.55-103,140.08-110A204.88,204.88,0,0,1,794.53-77.11c15.38,7.42,30.29,17.06,41,31.19,11,14.49,16.84,32.87,19.69,51.39C865.28,70.87,835,143.22,780.11,172c-29.56,15.47-63.21,18.12-95.94,20.51l-54,3.95" transform="translate(98.93 130.61)"/><path class="e" d="M114.13-127.81C148.45-126.13,181.61-106,201-75.15S225.44-3.34,214.34,32c-17.43,55.57-71.26,90.63-125,96.35A181.79,181.79,0,0,1-10,110.46c-13.58-6.71-26.72-15.38-36.1-28-9.62-12.94-14.69-29.28-17.08-45.72C-71.7-21.32-44.37-85.19,4.53-110.21c26.32-13.46,56.17-15.52,85.2-17.36l47.91-3" transform="translate(98.93 130.61)"/><path class="f" d="M-57,359.1c7.43-46.42,42.11-84.32,82.77-100.55,11.21-4.48,23.07-7.55,35-7.13,24.67.88,46.58,16.21,68.71,28.13,14.11,7.59,29.62,13.89,45.54,14.25,6.07.14,14.83,0,20.29-3.33,5.64-3.45,7-11,10.82-16.25,9.08-12.42,28.71-7,39.89-17.23,5.38-4.9,7.8-12.54,10-19.79,5.53-18.27,11.36-37.07,23-51.58,15.12-18.9,42.32-25.46,63.94-18.42a173,173,0,0,1,31.17,13.66c11,6.16,21.55,13.61,33.49,17.1,16.84,4.92,35.2,1.36,50.66-7.42,46-26.12,64.8-96.55,53.23-148.89-2.15-9.75-5.25-19.22-7.87-28.84-5.37-19.78-8.7-40.38-8-61s5.49-41.3,15.47-58.84" transform="translate(98.93 130.61)"/><path class="f" d="M521.52,530c-3-24.88-10.79-49.31-24.24-69.7s-32.72-36.55-54.85-43.64c-18.92-6.05-40.3-5.89-56.14-18.67-13.59-11-20.41-30.37-18.86-48.7s10.82-35.35,23.66-47.34c11.93-11.15,26.75-18.27,38.34-29.84,18.92-18.91,27.2-49.54,20.7-76.58" transform="translate(98.93 130.61)"/><path class="f" d="M436.31,266.45c13.94,20,29.1,41,50.81,49.46,10.26,4,21.32,4.88,32.22,4.93,34.07.13,69.72-8.56,95.17-33.22,9.92-9.62,18.44-21.7,30.74-27.17,9.16-4.07,19.41-4,29.28-3.07,14.19,1.29,29,4.42,39.94,14.28C726,282,731.66,298.2,742,309.87c18,20.21,50.26,22.66,70.65,5.36" transform="translate(98.93 130.61)"/><path class="f" d="M287.9,177.44a91.71,91.71,0,0,0-23.25-48.38c-12.34-13.12-28.31-21.73-40.3-35.22-19.49-22-26.1-55.19-20.66-85.14S225.46-47.92,246-68.69" transform="translate(98.93 130.61)"/><path class="f" d="M477.61,437.28c22.4-10.67,49.37-13,70.81-.24,5.16,3.08,9.89,7,14.94,10.25a123.61,123.61,0,0,0,16,8.57c16.42,7.57,34.86,13.49,51.89,7.71,16.26-5.53,29-21.05,45.75-24.11,17.55-3.19,34.31,8,49.14,18.66" transform="translate(98.93 130.61)"/><path class="f" d="M509.25,119.22c35.8,12.9,77.41,4.63,106.69-21.22,7.85-6.92,14.8-15,22.21-22.41,19.13-19.26,41.78-34.93,66.93-42.35S758,27.15,781.27,40" transform="translate(98.93 130.61)"/><path class="g" d="M2.51,309.48c23.94-29.56,66.14-44,97.88-25,26.48,15.82,44.31,53.54,77.23,56.2,7.55.61,15.54-.78,21.56-5.77,10.35-8.59,12.91-25.9,24.37-32.61,7.62-4.46,17-2.85,25.32-5.36,9.53-2.87,17.11-11,22-20.41,11.75-22.66,16.61-46.83,36-64.64,13.53-12.4,33.59-18.43,49.23-9.43,10.59,6.09,18.3,18.35,30.08,20.74,3.89.78,8,.39,11.77,1.54,8.92,2.67,14.27,13.61,13.5,23.64S405,267.3,398,274s-15.17,11.46-22.94,16.92c-25.6,18-47.47,36.21-47.6,71.5,0,6.87.37,13.82,2.28,20.36,7.13,24.47,42.91,42.3,64.65,45.1,4.33.56,8.71.19,13.06.52,22.21,1.66,41.2,23.18,43.42,47.28s-11.37,48.45-31.35,59.12c-9.72,5.19-20.58,7.42-30.34,12.52-11.67,6.09-21.51,16.13-33.75,20.72-5,1.89-10.36,2.81-15.29,5-10.58,4.69-18.28,14.68-25.47,24.35-10.56,14.19-21.33,28.79-35.75,38.15-20.68,13.43-46.28,14.35-70.19,11.14s-47.41-10.15-71.49-11.11c-39.59-1.57-81.31,12.78-117.7-4.26-35.1-16.44-69.59-70.77-65.16-113.5,1.81-17.53,10.42-33.36,12.38-51.11,3-27.49.51-55.15,5.08-82.57C-23.61,357-14.39,330.34,2.51,309.48Z" transform="translate(98.93 130.61)"/><path class="g" d="M573.3-2.62C592.23-26.08,618.88-38,647.6-40.89c26.65-2.66,56.95-12.17,82.31,2.45C756.5-23.1,765.9,12,767.78,43.7c2,33.29-1.51,66.64-4.19,99.88-4.63,57.33-6.87,115.2-.1,172.3,6,50.71,19.11,102.09,9.33,152.15-3.65,18.69-11.81,38.28-28.19,46.67-7.2,3.69-15.31,4.83-23.26,5.93-42.21,5.8-88.31,18.3-122-17.68-16.06-17.14-24.24-40.43-35.08-61.58s-26.73-42.06-49.18-47c-26.24-5.75-54.23,12-79.59,2.93C422.82,392.8,412.59,381.45,409,368a45.63,45.63,0,0,1,8.17-39.45c11.75-14.64,32-20.39,41.79-36.54,12-19.82,4.25-49.05,19.36-66.38,10.58-12.13,28.2-13.43,42.05-21.15,12.2-6.81,21.23-18.54,28.37-30.92,6.47-11.2,11.79-23.59,12.18-36.67.47-15.59-6-30.36-9.38-45.57C544.41,58.74,552.71,22.9,573.3-2.62Z" transform="translate(98.93 130.61)"/><path class="g" d="M29,208.82c20.22-3,40.2,6.5,57.79,17.75s34.41,24.69,54,31,43.33,3.67,56.54-13.25c11.79-15.11,12.72-38,25.49-52.18,17.36-19.22,51.43-16.56,62.38-40.74,2.61-5.76,3.43-12.41,6.52-17.9,2.65-4.73,6.81-8.26,11.25-11a50.4,50.4,0,0,1,55.92,2.69c10.34,7.72,18,19.27,28.62,26.45,19.72,13.26,47.23,8,64.11-9.24s23.61-44.3,20.66-69.31c-3-25.39-14.84-51.52-6.21-75.33,1.59-4.4,3.88-8.7,3.85-13.42,0-4.05-1.77-7.83-3.68-11.3C451.11-54.19,422-71.44,392.76-70.4,369-69.55,347-57.74,324.35-49.72a221.82,221.82,0,0,1-146.56.42c-27.27-9.5-52.69-24.23-79-36.52-20.73-9.68-42.48-18-65-18.8S-12.44-98-27.93-80.14C-50.7-53.93-50.72-13.1-44.79,22.39s16.4,71.55,9.73,106.88c-3.54,18.77-11.76,36.07-17,54.34s-7.38,39.07,1,55.92c8.67,17.43,26.65,20.87,37.87,5.67C-.32,227.73,5.38,212.28,29,208.82Z" transform="translate(98.93 130.61)"/><path class="h" d="M-13.31,548.85c-3-24.32,4.34-48.57,6.73-73,4.18-42.43-5.85-89,14.59-125.45C24.88,320.38,62,306,92.58,317.6c20.94,8,37.21,25.95,56.41,38s46.07,17,61.87.05c7.54-8.09,11.58-20.25,20.95-25.63,8.77-5,19.57-2.54,29.19-5.2,19.4-5.36,28.52-28.9,35.44-49.34s17.82-43.68,37.66-46.5c5.86-.83,11.83.35,17.46,2.3,5,1.74,10.17,4.35,13.08,9.15,4.47,7.38,2.13,17.66-2.88,24.61s-12.2,11.55-18.66,16.9c-21.59,17.83-36.26,46.15-36.5,75.63s15,59.19,39.41,72c19.81,10.45,45.65,11.14,58.67,30.45,12.05,17.89,6,45.07-9.3,59.76-21.81,21-55.28,20.06-79.66,37.39-25.32,18-38.36,53.94-66.57,65.82-33.73,14.2-70-12.89-106.17-13.59-19.65-.39-38.64,7.11-58.07,10.33C40,627.26-6.86,601.3-13.31,548.85Z" transform="translate(98.93 130.61)"/><path class="h" d="M-17.62,67c-3.2-15.88-7.2-31.72-7.76-48a113.61,113.61,0,0,1,14-58.71c7.59-13.61,18.81-25.8,33-29.56,22-5.83,43.46,9.36,63.14,21.57C162.06.29,258.84,9.2,342.42-23.91c14.54-5.77,29.06-12.81,44.52-13.51S419.48-30.59,425.31-15c4.88,13,.87,27.77.91,41.84.06,18.33,7.08,35.78,9,54s-3.47,40-19.24,46.45c-14.45,5.91-30.3-3.87-41.58-15.34S353,86.39,338.41,81c-14.92-5.52-32.74.07-42.67,13.39-6.83,9.16-9.87,21-16.13,30.66-7.5,11.56-19.66,19.4-32.59,21-15.56,1.91-33.09-4.34-45.93,5.4-18.44,14-12,49.64-30.53,63.53-8.09,6.07-19,6-28.33,2.7S124.6,208.35,116.11,203c-17.06-10.78-35.78-19.13-55.43-21.07C41.76,180,24,184.83,8,195.86c-12.6,8.71-23.46,14.22-32.2-4.34-8.59-18.23,5.32-35,9.2-52.49C-9.73,115.4-12.9,90.43-17.62,67Z" transform="translate(98.93 130.61)"/><path class="h" d="M598.38,443c-10.14-24.48-21.16-51.57-44.16-63.12-27-13.56-58.66-.19-88.58-.07-6.45,0-13.41-.8-18.22-5.3-10.46-9.76-3.37-28.44,7.26-38s24.68-16.32,30.37-29.72c8.67-20.42-5-49.7,11.45-63.9,9.34-8.05,23-5.62,35-7.47,23.55-3.65,41.71-25.61,48-49.62s2.74-49.64-3.13-73.77c-3.67-15.06-8.26-30.47-6.14-45.85,4.55-32.88,38.09-53.14,69.59-57.44,17.74-2.42,36.28-1.29,52.68,6.17s30.43,21.83,35.33,39.82c2.92,10.75,2.54,22.15,1.84,33.3-2.54,40.2-8.95,80.21-8.06,120.48,1.09,48.63,12.78,96.24,19.16,144.42,3.93,29.71,5.78,60.49-2.44,89.22s-28.19,55.27-55.75,63.54C640.52,518.31,612.88,478,598.38,443Z" transform="translate(98.93 130.61)"/><path class="i" d="M-1.56,59.77C-4.88,42.13-7.65,24-5.06,6.18S6.33-29.2,21.05-37.44c19.58-11,43.62-3,62.86,8.67S121.21-1.7,142.82,2.9c10.91,2.32,22.19,1.93,33,4.65,8.89,2.22,15,5.79,24.46,4.71,21.46-2.45,44.85,6.48,56.63,26.16s8,49.94-10.45,62.08c-19.53,12.84-48.16,3.73-64.61,20.94-15.66,16.39-8.87,54.17-37.56,56.63-12.83,1.1-23.52-9.67-33.77-18.15C99.48,150.74,86.74,143.43,73,141.34c-13.25-2-27.24,1.31-37.62,10.73-9.22,8.36-16.68,19.15-27.82,5.83-9.8-11.72-2.82-27.7-2.24-41.52C6.08,97.2,2,78.42-1.56,59.77Z" transform="translate(98.93 130.61)"/><path class="i" d="M47.33,124.5c-8.94,7.67-19.5,13.55-25.91-1.49-7.4-17.33-.77-40.49-3.26-59C16,47.54,9.29,31.47,11.27,15,13.4-2.73,27.09-18.5,43.45-20.43c9.72-1.15,19.42,2.23,28.39,6.48,17.93,8.49,34.23,20.53,51.6,30.31s36.53,17.42,56,16c8.43-.61,16.71-2.91,25.15-3.39s17.47,1.13,23.79,7.24c7.41,7.17,9.37,20.16,4.45,29.53-6.1,11.61-19.57,15.45-31.67,17.72s-25.51,4.78-33.12,15.27c-5.94,8.19-6.81,19.27-9.42,29.31s-8.82,20.73-18.39,21.43c-9.21.68-16.35-8-23.1-14.87-9.35-9.51-20.9-16.77-33.51-19.16S57.38,115.88,47.33,124.5Z" transform="translate(98.93 130.61)"/><path class="i" d="M29.48,39.78c-2-8.87-4.33-18.79-.05-26.64,5.22-9.58,18-10.84,27.47-6.62S73.8,18.91,82.28,25.13c18.56,13.61,41.61,17.56,63.93,19.38q20.64,1.68,41.35,1.33c3-.05,6.27-.08,8.8,1.73,4.45,3.17,4.41,10.87,1,15.35s-8.91,6.28-14.2,6.91-10.69.33-15.87,1.67c-10,2.62-18.34,11.83-20.57,22.78-2,9.82-.17,22.11-7.6,28.09-5.9,4.74-14.53,2.19-20.32-2.7s-10-11.75-15.65-16.79A34.5,34.5,0,0,0,73.86,95c-8.77,1.73-18,13.1-26.93,9.84C30,98.65,32.79,54.64,29.48,39.78Z" transform="translate(98.93 130.61)"/><path class="i" d="M68.84,80.67c-2.69,2-5.05,4.73-8.17,5.75C55.84,88,50.53,84.8,47.79,80.2s-3.42-10.28-3.67-15.75S44,53.39,42.54,48.14c-.66-2.44-1.64-4.78-2.08-7.27-1-5.38.95-11.36,5-14.59a11,11,0,0,1,14,.2c5.1,4.58,5.26,13,8.83,19.08a16,16,0,0,0,14.58,8c5.58-.4,10.79-4,16.38-3.62,15,.9,15.38,23,2.6,28.43C91,83,80.1,72.29,68.84,80.67Z" transform="translate(98.93 130.61)"/><path class="i" d="M115,80.14c.86-2.62,2.37-5,3.2-7.59,1-3.24,1-7,3-9.63s5.77-3.45,9.08-3.44,6.74.47,9.85-.77c1.77-.7,3.45-2,5.34-1.87,2.72.11,4.77,3.23,4.65,6.2a10.34,10.34,0,0,1-4.1,7.37,40.44,40.44,0,0,1-7.23,4.13,10.82,10.82,0,0,0-4.31,3.39,10.85,10.85,0,0,0-1.45,5.47c-.41,8.3,7,24.68-7.22,24.21C114.46,107.24,112,89.22,115,80.14Z" transform="translate(98.93 130.61)"/><path class="i" d="M291.08,61.85c8.88,1.8,17.59-3,26.11-6.25,18.38-7,41.72-5.21,53.54,11.6,3.26,4.63,5.42,10.08,8.69,14.7s8.18,8.53,13.52,8a13.75,13.75,0,0,0,8.64-4.86c7.06-7.91,7.52-20.35,5.77-31.21s-5.29-21.58-4.63-32.58c.27-4.66,1.3-9.3.88-13.94-.88-9.56-8.17-17.57-16.67-20.15s-17.82-.32-25.44,4.54C355-4.09,349.44,1.91,342.63,5.53c-18.91,10.06-43.21-4.15-60.92,7.89C264.94,24.82,272.09,58,291.08,61.85Z" transform="translate(98.93 130.61)"/><path class="i" d="M328.63,24.2a3,3,0,0,1,2.51.76,3.58,3.58,0,0,1,.61,2.55c-.61,11.79-18.3,15-25.54,19.89s-11.37,5.34-15.81-4.15c-2.72-5.84-3.89-15.28,2.6-18.52,5.89-2.95,12.59,4.12,18.39,4.38C317.52,29.38,322.59,24.51,328.63,24.2Z" transform="translate(98.93 130.61)"/><path class="i" d="M359.31,34.43c-3-.76-6.09-1.53-8.56-3.53s-4.13-5.61-3.06-8.76,4.55-4.76,7.71-5.29,6.52-.54,9.26-2.31c3.27-2.11,5.29-6.53,9-7.36,4.4-1,8.21,3.85,9.19,8.61,1.81,8.86,1.25,16,4.41,24.46,1.22,3.24,9.38,24.39,2.41,26.43-3.25.95-6.76-.87-9-3.6C371.6,52.07,376.16,38.72,359.31,34.43Z" transform="translate(98.93 130.61)"/><path class="h" d="M5,531.42c-1-27.25,5.77-54.17,6.42-81.43.6-25.48-4-51.81,3.5-76,8.45-27.19,35-48,61-43,18.28,3.47,32.88,17.83,48.69,28.38A131.9,131.9,0,0,0,171,378.88c15,3.11,32.1,2.9,43.64-8,5.54-5.23,9.93-11.83,14.95-17.61,1.81-2.07,3.66-4.19,6-5.46,9.1-4.92,21,4.62,29.8-.89,3.35-2.09,5.38-5.92,7.33-9.54,3.7-6.83,12.26-15.07,19.85-9.15,8.66,6.75,2.59,25.56,1.24,34.37-4.55,29.94,9.48,62.19,33.64,77.33,8,5,16.93,8.26,25,13.14s15.75,11.9,18.64,21.49c4.05,13.49-2.6,28.6-12.67,37.62S335.47,525.47,323,529.51s-25.38,8.3-35.46,17.3c-19.06,17-25.82,48.91-48.47,59.52-11.05,5.17-23.81,4-35.38.39s-22.47-9.37-33.93-13.34c-14.32-5-29.62-7-44.51-4.75C99.3,592.56,68.14,611.76,41.67,601,17.53,591.19,5.93,556.9,5,531.42Z" transform="translate(98.93 130.61)"/><path class="i" d="M320.63,260.67c2.39-3.28,5.09-6.5,8.63-8.11s8.13-1.22,10.63,1.95,2.21,7.83.46,11.4-4.75,6.18-7.73,8.6c-5.52,4.48-11.63,8.84-16,14.74-2.53,3.44-5.37,14.94-8.75,14.53C295.43,302.26,317.59,264.85,320.63,260.67Z" transform="translate(98.93 130.61)"/><path class="i" d="M133.23,574.68c-13.73,3-26.72,9.08-40.25,13s-28.33,5.57-41.26-.3c-16.92-7.7-27.39-27.13-30.53-46.79s-.12-39.81,3-59.48,6.37-39.73,3.7-59.47c-1.59-11.67-5.23-23.28-3.86-35,2.15-18.39,18.26-33.57,35.3-33.27,13.72.25,26,9.14,36.31,19s19.72,21.2,31.85,28.17c11.09,6.38,23.72,8.69,36.12,10.69,9.86,1.59,19.88,3,29.76,1.58s19.73-6.19,25.69-14.89c3.75-5.47,5.73-12.13,8.93-18s8.36-11.29,14.63-11.45c7.91-.2,16.79,7.62,22.74,1.94,3.55-3.4,5.67-11.14,10-9.17,1.49.68,2.32,2.41,2.88,4.06,5.15,15.28-3,33,1.94,48.32,2.29,7.09,7.18,12.85,12.57,17.57,11.17,9.78,24.79,15.86,35.76,25.91s19.19,26.51,14.06,41.07c-3.08,8.75-10.38,15-18.13,19.06-12.14,6.39-25.74,8.45-38.8,12.09s-26.41,9.49-34.63,21.12c-12.36,17.46-18.62,50.76-45.11,39.4C181,579.17,161.4,568.6,133.23,574.68Z" transform="translate(98.93 130.61)"/><path class="i" d="M40.55,491.72c3.8-18.14,8.4-36.74,5.66-55.11-1.47-9.89-5-19.35-6-29.32s1.53-21.29,9.3-26.66,18.11-3,25.73,2.38S88.59,396.43,95,403.47c22.89,25.18,55.66,38.06,88.18,39.55,9.45.44,19.22-.1,27.77-4.5C221.6,433,229.18,422,233.52,410.08c3.18-8.73,7.13-20.06,15.75-20,7.6.08,12,9.72,12.35,18s-1.4,17,1.62,24.53c5.54,13.9,23,15.85,33.28,26.09,10.07,10.05,11.31,28.84,2.68,40.36-8.44,11.27-22.86,14.14-35.94,17.1-10,2.28-26.22,6.36-31.47,17.41-5.34,11.22-1.08,25.78-13.89,33-9.7,5.46-21.25-.15-31.4-4.56-19.46-8.46-44-13.53-64.26-5.21-8.19,3.36-14.57,11.28-22.7,15.58-10.38,5.49-22,8.87-33.1,3.92C33.55,561.71,33.87,523.66,40.55,491.72Z" transform="translate(98.93 130.61)"/><path class="i" d="M127.71,500.31a20.36,20.36,0,0,0-3,2.74c-6.48,7.21-7.19,18.32-11.13,27.45-7.2,16.68-25.5,28.22-42.39,24.34a26.73,26.73,0,0,1-18.07-14.65c-3.51-7.8-.27-17.07,2.09-24.88,5.07-16.83,12.68-33.18,13.36-50.88a77.27,77.27,0,0,0-2.32-21.81c-1.56-6.11-4.79-11.78-4.53-18.3.17-4.38,2-8.83,5.3-11.26,9.19-6.66,17,6.17,21,13.26,7.76,13.75,19.28,26.24,33.87,29.14,6.73,1.34,13.63.55,20.47.31,10.65-.36,24.74.88,27,15.19,1.11,6.92-3.32,13.72-8.89,17.27s-12.12,4.66-18.43,6.15C137,495.57,131.88,497.18,127.71,500.31Z" transform="translate(98.93 130.61)"/><path class="i" d="M184,538.6c8.16,2.87,17.52,6,24.84,1.14,6.6-4.39,8.75-13.5,12.93-20.59a32.69,32.69,0,0,1,18.36-14.74c6.17-1.87,12.74-1.69,19-3.36s12.58-6,14-12.79-2.49-13.31-6.75-18.37-9.31-9.82-11.2-16.36c-1.44-5-1-10.83-4.1-14.82-3.45-4.48-10-4.5-14.81-1.8s-8.2,7.43-11.77,11.8-7.69,8.67-12.93,10c-5.8,1.42-12.18-1.08-17.66,1.43-7.6,3.48-9.25,14.13-10.29,23-.32,2.74-.74,5.61-2.26,7.82a12.57,12.57,0,0,1-4,3.45c-13.12,7.9-31.54,5.78-40.86,18.55-8.09,11.08,3.81,19.55,13.25,20.08C161.86,533.7,172.22,534.44,184,538.6Z" transform="translate(98.93 130.61)"/><path class="i" d="M110.93,506.91a75.7,75.7,0,0,1-8.14,20.59c-3.31,5.7-7.47,11-12.88,14.31a26.3,26.3,0,0,1-17.43,3.64c-6.56-1.05-9.79-5.89-10.56-13C61,523.68,64,515,67.57,507.1s7.71-15.7,9.28-24.34c1.43-7.81.65-15.86.52-23.81-.06-3.92.71-8.87,4.19-9.88,4-1.15,8,4.49,10.52,7.19,3.78,4,6.73,8.45,11.08,11.85,3.27,2.55,7.1,4.68,11.1,4.35,3.69-.3,7-2.64,10.52-3.73a11.78,11.78,0,0,1,9.58.82,9.2,9.2,0,0,1,4.31,8.91,9.55,9.55,0,0,1-6.14,7.13c-5.09,2-11.09-.15-15.59,3.78-3.64,3.19-4.32,8.8-5.23,13.79Q111.37,505.05,110.93,506.91Z" transform="translate(98.93 130.61)"/><path class="i" d="M71.67,527.66c-.23-5,2.23-9.71,4.79-13.91s5.39-8.46,6.07-13.45a63.22,63.22,0,0,1,.66-6.32,10.15,10.15,0,0,1,6.42-7.3,9.09,9.09,0,0,1,9.07,2.21c2.94,2.89,3.92,7.46,4.1,11.77a42.56,42.56,0,0,1-10,29.12c-2.83,3.28-7.44,8.17-11.86,8.28C76.15,538.18,71.89,532.48,71.67,527.66Z" transform="translate(98.93 130.61)"/><path class="i" d="M146.45,473.47a5.89,5.89,0,0,1,1.48-7.29,8.85,8.85,0,0,1,8.43-2.42c5.79,1.61,8.06,10.13,3.1,14.37C155.49,481.52,148.45,477.83,146.45,473.47Z" transform="translate(98.93 130.61)"/><path class="i" d="M180.89,522.43c6.62.06,13,5.63,19.34,3.45,5.93-2,8.21-9.58,11.41-15.39a31.66,31.66,0,0,1,21.62-16c4.84-.86,10.43-.78,13.69-4.76,2.24-2.73,2.68-6.64,2.91-10.29.28-4.39.39-8.9-.93-13.05s-4.37-7.92-8.34-8.71c-4.73-.93-9.22,2.39-12.86,5.8s-7.44,7.3-12.23,7.79c-4.4.46-8.92-2.09-13.13-.63-4.53,1.57-6.75,7.09-7.78,12.14s-1.53,10.56-4.64,14.47C187,501,182.31,502.4,177.84,503c-7.07.92-21.88.58-20.68,12.41C158.42,528,173.78,522.36,180.89,522.43Z" transform="translate(98.93 130.61)"/><path class="i" d="M217.36,488.72c2.69-1.37,5.79-1.28,8.76-1.41,3.6-.16,7.3-.71,10.45-2.62a11.63,11.63,0,0,0,5.75-9.35,6.94,6.94,0,0,0-.76-3.46c-1.69-3.06-5.78-3.26-8.91-2.14a18.2,18.2,0,0,0-7.42,5c-1.43,1.61-2.67,3.53-4.49,4.58s-4.2,1.07-6.33,1.54a14.64,14.64,0,0,0-8.64,5.79c-2.26,3.12-3.44,10.83,2.13,10.56C211.42,497.07,214.14,490.36,217.36,488.72Z" transform="translate(98.93 130.61)"/><path class="h" d="M608.25,404.29c-7.2-17.7-17.86-35-34.31-43.62-27.16-14.22-59.38-.57-89.73.56-2.84.1-5.83.06-8.29-1.42-5.94-3.56-5.18-13.34-.72-18.77s11.17-8.11,16.88-12.05a47.25,47.25,0,0,0,19.3-30.83c1.59-9.56.5-20.18,5.8-28.13,6.79-10.17,20.42-11.16,31.88-14.36,20.85-5.83,38.34-22.06,48.5-42S611,170.5,609.08,148c-2.63-31.55-14.83-63.36-7.1-94,2.33-9.23,6.71-18.29,14.1-23.89,8.24-6.23,19-7.36,29.13-7.57,12.6-.28,26.21.9,35.88,9.35,10.12,8.85,13.45,23.48,15.18,37.16,5.64,44.46.64,89.51-.73,134.33a830.54,830.54,0,0,0,3.57,106.28c3.78,38.48,10.25,76.9,8.83,115.55-.9,24.7-14,77.52-48.26,65.81C627.52,480.08,619.61,432.23,608.25,404.29Z" transform="translate(98.93 130.61)"/><path class="i" d="M620.55,377c-11.22-20.83-30.19-39-53-40.84-11.31-.89-22.54,2.29-33.28,6.1-5.93,2.11-13.2,4.17-17.87-.21-4.86-4.56-3.26-13.1.5-18.69s9.23-9.93,12-16.13c2.61-5.92,2.55-13.12,6.44-18.21,6.34-8.29,18.59-6.19,28.55-8.26,28.38-5.91,46.41-48,55-73.46,10.81-31.85,13.53-66.79,6.93-99.92-2-10-4.76-19.85-4.71-30s3.5-21,11.51-26.72C643.3,43,658.8,47,667.93,56.58c13.26,13.91,14.81,33.4,16.48,51.65,2.11,23.11.65,44.65-1.19,67.78-2.54,32.13,1.28,63.87.83,95.73-.46,32.56-.92,67.58,4.69,99.68,3.27,18.75,9.4,37.36,7.87,56.35-1.72,21.4-24.82,54.69-44.93,30.4-8.33-10.05-10.85-26-14.63-38.27C632.53,405.21,627.82,390.48,620.55,377Z" transform="translate(98.93 130.61)"/><path class="i" d="M664.55,442.32c-2.79-1.79-4.56-5-6-8.12-9.08-19.78-9.53-43.09-17.79-63.29-12.53-30.63-44-50.74-74.7-47.7-4.19.42-8.43,1.22-12.57.41s-8.28-3.65-9.33-8.08c-1.52-6.37,4.09-12.46,10-13.94s12,.06,18.05.27a42.52,42.52,0,0,0,30.92-12.36c7.9-7.76,12.94-18.34,19.84-27.16s17.1-16.27,27.56-14.08c8.59,1.79,15.1,9.73,18.78,18.36,6.67,15.7,5.88,33.74,6.05,51a411.45,411.45,0,0,0,9,81.3c2,9.46,4.44,17.07,1.89,26.6C683.8,434.75,675.14,449.15,664.55,442.32Z" transform="translate(98.93 130.61)"/><path class="i" d="M650.58,234.31c-7.49-9.44-9.08-22.93-7.89-35.34s4.8-24.39,6.39-36.74a114.66,114.66,0,0,0-2.66-43c-2-7.86-4.93-15.78-4.14-23.9s7-16.41,14.47-15.28c6.09.91,10,7.36,12.71,13.38A149,149,0,0,1,682.12,160c-.65,15.34-3.58,31.21,1.06,45.71,3.54,11,9.41,25.65-1.48,34.68C672.82,247.79,657.22,242.69,650.58,234.31Z" transform="translate(98.93 130.61)"/><path class="i" d="M642,335.25c-4.51-3.23-9.69-5.38-13.77-9.23a26.56,26.56,0,0,1-7.73-21.59c.83-8,5.46-15.39,12-19.16a17.26,17.26,0,0,0,4.21-2.8c2-2.19,2.78-5.93,5.45-7.09,2.48-1.07,5.24.79,6.89,3.06,4.11,5.66,4.17,13.56,3.54,20.74s-1.73,14.68.63,21.43c1.38,3.94,3.86,7.3,5.72,11a38.46,38.46,0,0,1,3.77,21.19c-.26,2.44-.94,5.13-2.9,6.34C653.4,363.08,647.36,339.09,642,335.25Z" transform="translate(98.93 130.61)"/><path class="i" d="M662.15,186.42a9.5,9.5,0,0,1,4.5-4.22c4.37-1.54,8.61,2.94,10.49,7.51,3.33,8.13,5.76,46.85-10.49,40.56C654.44,225.55,656.79,195.11,662.15,186.42Z" transform="translate(98.93 130.61)"/></g><path class="j" d="M143.74,460.05c1.12-6.7.12-13.69-.76-19.85a1.38,1.38,0,0,0-.71-1,1.16,1.16,0,0,0-1.19,0,27.61,27.61,0,0,0-11.32,15.58,30.46,30.46,0,0,0,1.17,19.9,1.77,1.77,0,0,0,.29.44,2.68,2.68,0,0,0,.07.27,1.32,1.32,0,0,0,.79.81,1.12,1.12,0,0,0,.86,0C138.34,473.83,142.47,467.65,143.74,460.05Z" transform="translate(98.93 130.61)"/><path class="k" d="M144.9,448.27a.41.41,0,0,0-.6-.11l0,0c-1.23,1-2.44,2-3.63,3-.64.53-1.26,1.07-1.89,1.61.38-1.35.76-2.71,1.15-4.06.89-3.12,1.81-6.23,2.73-9.33h0a.43.43,0,0,0-.22-.5.35.35,0,0,0-.48.22c-1.14,3-2.17,6.12-3.14,9.21-.46,1.43-.88,2.87-1.3,4.31l-.3-.95-.92-2.88c-.63-1.92-1.27-3.83-2-5.72a.38.38,0,0,0-.44-.24.42.42,0,0,0-.27.5c.48,2,1,3.92,1.56,5.86l.84,2.91c.28.94.55,1.89.84,2.82-.26.92-.52,1.84-.77,2.76-.3,1.11-.57,2.22-.85,3.33l-.86-1.67c-.5-1-1-1.94-1.51-2.89-1-1.92-2.05-3.83-3.13-5.71a.35.35,0,0,0-.48-.15.42.42,0,0,0-.18.54c.89,2,1.82,4,2.76,5.93.47,1,1,2,1.44,2.94l1.46,2.92,0,0c-.33,1.41-.66,2.82-1,4.24-.13.61-.25,1.23-.37,1.84-.83-1.2-1.64-2.41-2.5-3.59-1.06-1.49-2.12-3-3.22-4.43a.37.37,0,0,0-.5-.08.43.43,0,0,0-.11.56q1.42,2.37,2.91,4.68c1,1.56,2,3.06,3,4.6l.07.07c-.37,2-1.71,8.33-2,10.35a.43.43,0,0,0,.31.49.41.41,0,0,0,.49-.34h0c.42-2.13,1.88-8.57,2.35-10.68,1.53-1.11,3-2.26,4.56-3.4s3.25-2.51,4.84-3.83a.47.47,0,0,0,.1-.58.38.38,0,0,0-.56-.15c-1.71,1.11-3.39,2.28-5.06,3.46-1.15.82-2.29,1.65-3.43,2.48.09-.38.17-.76.26-1.14q.56-2.36,1.14-4.71c1.31-1.09,2.64-2.17,3.93-3.28,1.44-1.23,2.87-2.47,4.27-3.75a.48.48,0,0,0,.07-.59.39.39,0,0,0-.56-.12c-1.52,1.11-3,2.26-4.49,3.42-.89.69-1.77,1.4-2.65,2.11.22-.84.43-1.68.66-2.51.25-1,.52-2,.79-2.95,1.09-1,2.2-1.95,3.28-2.95s2-1.9,3-2.88a.44.44,0,0,0,.15-.1l.3-.33A.5.5,0,0,0,144.9,448.27Z" transform="translate(98.93 130.61)"/><path class="j" d="M632.62,457c-7.49.48-14.68,3.72-21,6.59a1.62,1.62,0,0,0-.91,1.2,1.68,1.68,0,0,0,.39,1.48,28.79,28.79,0,0,0,40.85,2.82,1.62,1.62,0,0,0,.38-.49,1.53,1.53,0,0,0,.27-.17,1.71,1.71,0,0,0,.65-1.23,1.76,1.76,0,0,0-.28-1.08C648.9,459.94,641.12,456.45,632.62,457Z" transform="translate(98.93 130.61)"/><path class="k" d="M619.68,458.86a.59.59,0,0,0,.06.79l0,.05c1.38,1.28,2.79,2.53,4.21,3.76l2.26,1.93-4.68-.3q-5.39-.37-10.76-.83h0a.47.47,0,0,0-.48.41.5.5,0,0,0,.38.56c3.58.58,7.16,1,10.75,1.37q2.49.24,5,.42l-.93.65-2.83,2c-1.87,1.34-3.73,2.69-5.56,4.11a.52.52,0,0,0-.13.63.43.43,0,0,0,.6.2c2-1.16,3.91-2.4,5.84-3.63l2.88-1.9c.92-.62,1.86-1.22,2.78-1.86l3.17.2c1.27.06,2.53.09,3.8.13l-1.55,1.56c-.88.91-1.79,1.8-2.66,2.73-1.76,1.84-3.52,3.69-5.23,5.59a.53.53,0,0,0,0,.65.42.42,0,0,0,.63.07c1.89-1.69,3.73-3.43,5.57-5.18.92-.87,1.82-1.77,2.73-2.65l2.72-2.67,0-.05c1.61,0,3.21.05,4.81,0l2.09-.05c-1.06,1.39-2.12,2.77-3.15,4.19-1.29,1.76-2.58,3.53-3.82,5.34a.51.51,0,0,0,0,.64.41.41,0,0,0,.63,0c1.43-1.64,2.82-3.31,4.19-5s2.71-3.41,4.07-5.11a.67.67,0,0,0,.06-.12c2.24-.1,9.4-.18,11.63-.43a.51.51,0,0,0,.44-.54.5.5,0,0,0-.5-.51h0c-2.39.06-9.7,0-12.09,0-1.63-1.63-3.28-3.22-4.93-4.82s-3.61-3.41-5.47-5a.46.46,0,0,0-.65,0,.56.56,0,0,0,0,.75c1.67,1.86,3.4,3.65,5.13,5.44l3.63,3.64h-1.3c-1.78,0-3.57-.07-5.35-.12-1.55-1.35-3.07-2.72-4.64-4.05-1.72-1.47-3.44-2.93-5.21-4.34a.46.46,0,0,0-.65.07.56.56,0,0,0,0,.75c1.61,1.61,3.26,3.17,4.93,4.72,1,.93,2,1.84,3,2.75-1,0-1.91-.06-2.87-.11l-3.37-.17c-1.37-1.11-2.72-2.24-4.1-3.32s-2.61-2-3.93-3a.5.5,0,0,0-.15-.17l-.44-.28A.49.49,0,0,0,619.68,458.86Z" transform="translate(98.93 130.61)"/><path class="j" d="M297.13,421.24c-8.66,6.52-15.1,16.12-20.79,24.6a2.49,2.49,0,0,0-.29,2.16,2.15,2.15,0,0,0,1.47,1.47,40,40,0,0,0,30.5-3.88,46.39,46.39,0,0,0,20.36-25.19,2.55,2.55,0,0,0,.13-.9,2.52,2.52,0,0,0,.21-.4,2.5,2.5,0,0,0-.05-2,2.16,2.16,0,0,0-1.05-1.08C318.64,411.84,307,413.84,297.13,421.24Z" transform="translate(98.93 130.61)"/><path class="k" d="M282.87,433.76a.79.79,0,0,0,.6.9l.08,0c2.52.44,5.05.81,7.58,1.16,1.33.2,2.66.36,4,.53l-5.82,3.35q-6.69,3.84-13.44,7.56h0a.7.7,0,0,0-.29.87.61.61,0,0,0,.82.37c4.68-2.14,9.26-4.48,13.81-6.91q3.15-1.67,6.25-3.44c-.23.51-.45,1-.68,1.52l-2.06,4.62c-1.34,3.09-2.67,6.19-3.91,9.35a.71.71,0,0,0,.26.85.6.6,0,0,0,.86-.24c1.59-3,3.08-6,4.57-9l2.17-4.55c.7-1.49,1.42-3,2.09-4.45,1.31-.76,2.63-1.51,3.94-2.28,1.55-.93,3.09-1.9,4.63-2.86l-.8,3.1c-.45,1.8-.94,3.58-1.36,5.39-.88,3.61-1.75,7.21-2.51,10.85a.7.7,0,0,0,.4.8.61.61,0,0,0,.8-.42c1.14-3.52,2.18-7.07,3.21-10.63.52-1.78,1-3.57,1.49-5.35l1.47-5.36s0-.06,0-.08c1.94-1.24,3.88-2.5,5.79-3.79l2.46-1.71c-.33,2.5-.68,5-1,7.51-.37,3.14-.72,6.28-1,9.44a.68.68,0,0,0,.49.73.63.63,0,0,0,.75-.52c.61-3.1,1.15-6.21,1.66-9.33s1-6.24,1.45-9.36a1.09,1.09,0,0,0,0-.18c2.62-1.9,11.15-7.69,13.66-9.75a.79.79,0,0,0,.17-1,.65.65,0,0,0-.95-.22h0c-2.82,2-11.61,7.75-14.47,9.66-3-.66-6.09-1.25-9.14-1.86-3.31-.61-6.62-1.23-9.95-1.71a.69.69,0,0,0-.75.56.75.75,0,0,0,.5.9c3.25.9,6.53,1.68,9.81,2.45l6.79,1.48-1.56,1c-2.16,1.38-4.32,2.75-6.5,4.11-2.76-.4-5.51-.83-8.28-1.18-3.05-.4-6.1-.77-9.16-1.06a.69.69,0,0,0-.73.6.75.75,0,0,0,.54.88c3,.65,6,1.21,9.07,1.74,1.82.33,3.63.63,5.45.92-1.17.71-2.34,1.44-3.52,2.14-1.38.84-2.77,1.65-4.16,2.47-2.38-.24-4.75-.52-7.13-.72s-4.5-.37-6.75-.5a.57.57,0,0,0-.29-.08h-.72A.75.75,0,0,0,282.87,433.76Z" transform="translate(98.93 130.61)"/><path class="j" d="M292.73,134.29c9.32.27,18.53-2.92,26.65-5.73a2,2,0,0,0,1.25-1.38,2.1,2.1,0,0,0-.34-1.88,37.53,37.53,0,0,0-23.63-14.58A36.09,36.09,0,0,0,270,117.13a2.17,2.17,0,0,0-.53.56,2.7,2.7,0,0,0-.34.17,2.08,2.08,0,0,0-.92,1.45,2.13,2.13,0,0,0,.24,1.37C272.87,128.77,282.17,134,292.73,134.29Z" transform="translate(98.93 130.61)"/><path class="k" d="M308.92,133.46a.73.73,0,0,0,0-1l-.05-.06c-1.59-1.75-3.21-3.45-4.85-5.14-.85-.89-1.73-1.77-2.6-2.64l5.76.91c4.41.71,8.82,1.47,13.22,2.25h0a.56.56,0,0,0,.63-.45.62.62,0,0,0-.41-.73c-4.37-1.13-8.76-2.07-13.17-2.93-2-.39-4.07-.75-6.12-1.09l1.22-.7,3.69-2.12c2.44-1.45,4.88-2.9,7.27-4.45a.64.64,0,0,0,.23-.76.54.54,0,0,0-.73-.32c-2.56,1.21-5.07,2.51-7.58,3.82l-3.74,2c-1.2.66-2.42,1.3-3.62,2-1.3-.21-2.6-.42-3.91-.61-1.55-.22-3.12-.41-4.68-.59l2.06-1.76c1.19-1,2.39-2,3.57-3.07,2.35-2.08,4.7-4.16,7-6.32a.63.63,0,0,0,.09-.8.54.54,0,0,0-.77-.16c-2.5,1.87-4.95,3.82-7.39,5.77-1.23,1-2.43,2-3.64,3l-3.62,3-.05.05q-3-.33-5.95-.59c-.86-.07-1.72-.12-2.58-.17,1.44-1.6,2.89-3.19,4.3-4.82,1.77-2,3.53-4.07,5.24-6.17a.63.63,0,0,0,0-.8.52.52,0,0,0-.78,0c-1.92,1.87-3.8,3.78-5.66,5.71s-3.69,3.91-5.53,5.86a1,1,0,0,0-.09.13c-2.78-.14-11.64-.85-14.43-.81a.66.66,0,0,0,0,1.32h0c3,.19,12,1.07,15,1.33,1.85,2.2,3.75,4.36,5.63,6.53,2.06,2.32,4.13,4.63,6.27,6.87a.57.57,0,0,0,.81,0A.69.69,0,0,0,289,134c-1.89-2.5-3.86-4.91-5.83-7.33q-2.06-2.46-4.13-4.91c.53,0,1.07.09,1.6.15,2.21.24,4.41.49,6.62.76,1.77,1.85,3.53,3.72,5.34,5.54,2,2,4,4,6,6a.57.57,0,0,0,.81,0,.7.7,0,0,0,0-.93c-1.83-2.18-3.73-4.3-5.63-6.41q-1.71-1.89-3.45-3.75c1.18.16,2.36.3,3.54.47,1.38.19,2.77.4,4.15.61,1.58,1.52,3.14,3.07,4.75,4.57s3,2.81,4.57,4.19a.72.72,0,0,0,.17.22l.52.4A.59.59,0,0,0,308.92,133.46Z" transform="translate(98.93 130.61)"/><path class="j" d="M722.48,274.37c7.74,5.28,17,7.58,25.14,9.61a1.76,1.76,0,0,0,1.68-.48,2.07,2.07,0,0,0,.58-1.78,41.58,41.58,0,0,0-13.29-25.13,35.82,35.82,0,0,0-25.42-9,1.62,1.62,0,0,0-.7.19,2.33,2.33,0,0,0-.37,0,1.82,1.82,0,0,0-1.44.72,2.11,2.11,0,0,0-.43,1.29C708.23,258.94,713.69,268.38,722.48,274.37Z" transform="translate(98.93 130.61)"/><path class="k" d="M736.53,282.45a.69.69,0,0,0,.46-.83l0-.07c-.53-2.34-1.13-4.66-1.73-7-.32-1.22-.65-2.43-1-3.65l4.45,3.89c3.4,3,6.78,6,10.13,9.08h0a.51.51,0,0,0,.74-.05.63.63,0,0,0,0-.83c-3.17-3.33-6.46-6.5-9.79-9.62-1.53-1.44-3.09-2.85-4.66-4.24l1.34.07,4.09.21c2.73.1,5.46.19,8.19.18a.57.57,0,0,0,.54-.52.59.59,0,0,0-.48-.66c-2.71-.37-5.43-.63-8.14-.88l-4.09-.33c-1.32-.09-2.64-.22-4-.29l-3-2.64c-1.22-1-2.46-2-3.69-3l2.55-.37c1.47-.22,2.95-.41,4.41-.66,2.95-.47,5.89-1,8.82-1.54a.58.58,0,0,0,.44-.62.56.56,0,0,0-.58-.55c-3,.21-5.93.53-8.89.86-1.48.15-2.95.36-4.43.53l-4.43.57h-.06q-2.36-1.89-4.76-3.72c-.69-.52-1.39-1-2.1-1.55,2-.57,3.9-1.12,5.84-1.74,2.43-.75,4.85-1.52,7.26-2.36a.59.59,0,0,0,.36-.68.55.55,0,0,0-.64-.47c-2.47.53-4.94,1.13-7.4,1.76s-4.9,1.3-7.35,1.94a.54.54,0,0,0-.13.07c-2.29-1.62-9.45-7-11.82-8.51a.58.58,0,0,0-.79.2.69.69,0,0,0,.16.9h0c2.41,1.77,9.65,7.42,12,9.25.56,2.86,1.17,5.71,1.76,8.56.69,3.08,1.37,6.16,2.16,9.21a.58.58,0,0,0,.66.46.64.64,0,0,0,.5-.74c-.46-3.13-1-6.23-1.57-9.34-.41-2.13-.82-4.27-1.24-6.4.43.34.86.66,1.28,1q2.64,2.1,5.24,4.23c.66,2.53,1.28,5.06,2,7.58.76,2.78,1.52,5.56,2.36,8.31a.59.59,0,0,0,.69.43.65.65,0,0,0,.46-.77c-.55-2.84-1.18-5.65-1.83-8.46q-.57-2.54-1.19-5c.92.77,1.85,1.53,2.77,2.31,1.09.91,2.16,1.84,3.24,2.77.63,2.14,1.24,4.3,1.91,6.43s1.27,4,1.94,6a.66.66,0,0,0,0,.28l.25.63A.61.61,0,0,0,736.53,282.45Z" transform="translate(98.93 130.61)"/><path class="k" d="M19.4,429.84C14.89,423.52,8.49,419,2.85,415a1.37,1.37,0,0,0-1.39-.14A1.55,1.55,0,0,0,.57,416a35.23,35.23,0,0,0,3.64,23,30.92,30.92,0,0,0,16.91,14.47,1.29,1.29,0,0,0,.58.07.94.94,0,0,0,.26.14,1.41,1.41,0,0,0,1.28-.11,1.59,1.59,0,0,0,.65-.84C26.23,445.78,24.51,437,19.4,429.84Z" transform="translate(98.93 130.61)"/><path class="j" d="M21.78,432.65a.51.51,0,0,0-.37-.54.47.47,0,0,0-.55.4c-.44,2.44-.8,4.89-1.17,7.35-.22,1.69-.45,3.39-.67,5.08l-.28-.45-1.92-3.15c-.44-.7-.87-1.43-1.31-2.17.15-2.06.32-4.11.43-6.17.14-2.27.26-4.54.32-6.81a.49.49,0,0,0-.4-.52.46.46,0,0,0-.52.43c-.3,2.25-.54,4.51-.76,6.78-.14,1.35-.25,2.71-.37,4.07l-1.47-2.53-1.7-3c.07-1.78.16-3.55.19-5.32s.07-3.34.07-5a.41.41,0,0,0,0-.22l0-.53a.52.52,0,0,0-.44-.5.5.5,0,0,0-.54.48v.06c-.19,1.88-.33,3.76-.45,5.64-.07,1-.13,2-.18,3l-.9-1.62-3.38-6.17-3.25-6.05a.41.41,0,0,0-.55-.18.47.47,0,0,0-.2.62s1.11,2.54,3,6.25c.93,1.85,2,4,3.22,6.3.33.62.69,1.27,1,1.9l-1-.45c-1-.45-2-.92-3-1.36-2-.87-4-1.74-6-2.54a.41.41,0,0,0-.52.23.47.47,0,0,0,.18.62c1.91,1.07,3.85,2.06,5.78,3.05,1,.49,2,.95,2.93,1.44S9,432,9.9,432.44l1.58,2.83c.64,1.12,1.3,2.23,1.95,3.32l-1.95-.47c-1.14-.27-2.28-.57-3.42-.81-2.29-.52-4.57-1-6.87-1.46a.43.43,0,0,0-.49.33.49.49,0,0,0,.29.58c2.25.71,4.5,1.34,6.76,2,1.13.33,2.27.61,3.4.91l3.4.88h0q.51.86,1,1.68c.69,1.09,1.34,2.15,2,3.12l.73,1.1c-1.58-.16-3.15-.32-4.73-.43-2-.16-4-.31-5.94-.39a.44.44,0,0,0-.44.39.47.47,0,0,0,.36.53c2,.34,3.92.62,5.89.88s3.93.48,5.9.73h.1c1.15,1.68,2.15,3,2.86,4s3.52,5.09,3.52,5.09a.45.45,0,0,0,.64.09.55.55,0,0,0,.1-.71h0l-3.42-5.16c-.67-1-1.58-2.42-2.69-4.13l-.23-.37c.3-2.28.55-4.57.83-6.86C21.34,437.6,21.6,435.13,21.78,432.65Z" transform="translate(98.93 130.61)"/><path class="k" d="M723.39,114.9c-6.58,3.57-11.91,9.5-16.61,14.74a1.7,1.7,0,0,0-.4,1.46,1.52,1.52,0,0,0,.88,1.17,27.73,27.73,0,0,0,21.42.63,31.24,31.24,0,0,0,16.37-15.19,1.7,1.7,0,0,0,.17-.6,1.51,1.51,0,0,0,.18-.26,1.72,1.72,0,0,0,.15-1.38,1.52,1.52,0,0,0-.63-.86C739.1,110.74,730.85,110.86,723.39,114.9Z" transform="translate(98.93 130.61)"/><path class="j" d="M726.39,112.91a.45.45,0,0,0-.55.29.53.53,0,0,0,.25.67c2.11.95,4.25,1.81,6.39,2.68l4.45,1.72-.46.21-3.22,1.43-2.21,1c-1.83-.56-3.64-1.14-5.48-1.67-2-.59-4-1.17-6.08-1.68a.46.46,0,0,0-.54.32.52.52,0,0,0,.28.65c2,.76,4,1.45,6,2.13,1.2.42,2.4.81,3.6,1.2l-2.57,1.07-3,1.23c-1.59-.42-3.16-.86-4.76-1.25s-3-.73-4.5-1.06a.67.67,0,0,0-.18-.07l-.49-.07a.5.5,0,0,0-.54.37.55.55,0,0,0,.33.67l.05,0c1.66.56,3.33,1.08,5,1.58.88.28,1.76.53,2.64.78l-1.63.64-6.22,2.4-6.09,2.27a.48.48,0,0,0-.28.56.42.42,0,0,0,.52.33s2.51-.69,6.22-1.92c1.85-.63,4-1.35,6.31-2.2l1.91-.73c-.19.32-.4.64-.6,1-.6,1-1.21,1.91-1.8,2.89-1.18,1.94-2.35,3.89-3.46,5.88a.49.49,0,0,0,.1.61.4.4,0,0,0,.6-.08c1.33-1.82,2.6-3.69,3.87-5.57.64-.94,1.25-1.89,1.87-2.84s1.22-1.83,1.8-2.76c1-.37,1.91-.74,2.87-1.13,1.13-.46,2.26-.94,3.37-1.42l-.81,2c-.47,1.16-1,2.31-1.41,3.48-.91,2.34-1.81,4.68-2.66,7a.49.49,0,0,0,.21.58.4.4,0,0,0,.57-.2c1.08-2.25,2.1-4.53,3.11-6.82.51-1.14,1-2.3,1.48-3.45l1.47-3.46s0,0,0,0l1.71-.77c1.12-.51,2.2-1,3.21-1.51.38-.2.76-.38,1.13-.56-.45,1.65-.91,3.3-1.32,5-.53,2.08-1.05,4.16-1.52,6.25a.47.47,0,0,0,.27.55.42.42,0,0,0,.55-.28c.69-2,1.33-4.06,2-6.1s1.2-4.11,1.81-6.16a.37.37,0,0,0,0-.11c1.74-.89,3.17-1.69,4.16-2.27s5.28-2.75,5.28-2.75a.54.54,0,0,0,.21-.66.46.46,0,0,0-.62-.25h0l-5.32,2.64c-1,.53-2.49,1.21-4.26,2.06l-.38.18c-2-.77-4-1.49-6-2.23C730.77,114.35,728.59,113.59,726.39,112.91Z" transform="translate(98.93 130.61)"/><path class="k" d="M258.54,352.45c4.9,3.43,10.77,5,15.95,6.34a1.1,1.1,0,0,0,1.07-.3,1.29,1.29,0,0,0,.38-1.13,26.57,26.57,0,0,0-8.28-16.12,22.9,22.9,0,0,0-16.13-6,1.07,1.07,0,0,0-.45.11l-.24,0a1.16,1.16,0,0,0-.92.45,1.35,1.35,0,0,0-.28.82C249.58,342.5,253,348.56,258.54,352.45Z" transform="translate(98.93 130.61)"/><path class="j" d="M256.08,351a.37.37,0,0,0,.41.29.4.4,0,0,0,.31-.46c-.26-1.94-.59-3.88-.91-5.81-.24-1.34-.48-2.67-.73-4l.32.26,2.2,1.8,1.5,1.25c.39,1.58.76,3.16,1.17,4.73.45,1.73.91,3.46,1.41,5.18a.36.36,0,0,0,.43.27.4.4,0,0,0,.29-.47c-.33-1.77-.7-3.52-1.08-5.27-.22-1.06-.47-2.11-.71-3.16l1.71,1.48c.67.57,1.33,1.15,2,1.73.38,1.34.74,2.69,1.14,4s.76,2.51,1.17,3.76a.36.36,0,0,0,0,.17l.15.38a.38.38,0,0,0,.45.25.43.43,0,0,0,.29-.51l0-.05c-.31-1.45-.66-2.9-1-4.34-.18-.76-.38-1.52-.58-2.27l1.06,1,4,3.63,3.89,3.59a.32.32,0,0,0,.46,0,.4.4,0,0,0,0-.52s-1.45-1.58-3.72-3.82c-1.15-1.12-2.47-2.43-3.94-3.78-.39-.37-.81-.75-1.23-1.13l.84.06c.85.05,1.7.12,2.54.16,1.7.09,3.39.17,5.09.18a.34.34,0,0,0,.34-.31.37.37,0,0,0-.29-.42c-1.69-.25-3.37-.43-5.06-.61-.84-.09-1.69-.16-2.53-.24s-1.64-.16-2.46-.21l-1.86-1.67c-.76-.64-1.51-1.29-2.26-1.91l1.57-.21c.92-.12,1.84-.23,2.75-.37,1.83-.27,3.66-.55,5.49-.89a.36.36,0,0,0,.28-.38.36.36,0,0,0-.36-.35c-1.85.11-3.69.29-5.53.46l-2.76.3-2.75.31h0l-1.18-.95c-.77-.63-1.52-1.23-2.25-1.77l-.8-.61c1.21-.33,2.43-.66,3.64-1,1.51-.45,3-.91,4.52-1.41a.36.36,0,0,0,.23-.42.33.33,0,0,0-.39-.29c-1.54.31-3.08.66-4.61,1s-3.06.76-4.58,1.14l-.08,0c-1.26-.92-2.34-1.66-3.1-2.16s-3.86-2.79-3.86-2.79a.36.36,0,0,0-.5.11.44.44,0,0,0,.09.56h0l3.8,2.87c.75.53,1.77,1.35,3,2.31l.26.21c.33,1.79.69,3.57,1,5.36S255.61,349.13,256.08,351Z" transform="translate(98.93 130.61)"/><path class="k" d="M44.84,139.06c4.9,3.43,10.77,5,15.95,6.33a1.09,1.09,0,0,0,1.08-.29,1.33,1.33,0,0,0,.38-1.13A26.61,26.61,0,0,0,54,127.85a22.83,22.83,0,0,0-16.13-6,1,1,0,0,0-.45.11.85.85,0,0,0-.23,0,1.13,1.13,0,0,0-.92.45,1.34,1.34,0,0,0-.29.82C35.88,129.11,39.29,135.17,44.84,139.06Z" transform="translate(98.93 130.61)"/><path class="j" d="M42.38,137.64a.38.38,0,0,0,.41.3.42.42,0,0,0,.32-.46c-.27-1.95-.59-3.88-.91-5.82-.25-1.33-.48-2.66-.73-4l.32.26,2.2,1.8,1.5,1.25c.38,1.58.76,3.16,1.17,4.73.45,1.73.9,3.46,1.41,5.18a.36.36,0,0,0,.42.27.4.4,0,0,0,.29-.47c-.32-1.77-.69-3.53-1.07-5.28q-.35-1.57-.72-3.15l1.71,1.47c.67.58,1.34,1.16,2,1.74.38,1.34.75,2.69,1.15,4S52.6,142,53,143.26a.45.45,0,0,0,0,.16l.15.39a.38.38,0,0,0,.45.25.43.43,0,0,0,.29-.51v-.05c-.32-1.46-.67-2.9-1-4.34-.19-.76-.39-1.52-.59-2.28l1.07,1,4,3.64,3.89,3.59a.32.32,0,0,0,.46,0,.4.4,0,0,0,0-.52s-1.45-1.58-3.72-3.83c-1.14-1.11-2.47-2.42-3.93-3.78l-1.23-1.12.84.06c.85.05,1.69.12,2.54.16,1.69.08,3.38.17,5.08.18a.35.35,0,0,0,.34-.32.35.35,0,0,0-.29-.41c-1.68-.25-3.37-.43-5.06-.62-.84-.09-1.68-.15-2.53-.23s-1.63-.16-2.45-.21l-1.87-1.67c-.75-.65-1.51-1.29-2.26-1.92l1.58-.2c.91-.13,1.83-.23,2.75-.38,1.83-.27,3.66-.54,5.48-.88a.35.35,0,0,0,.28-.38.35.35,0,0,0-.35-.35c-1.85.11-3.69.28-5.53.46-.92.08-1.84.2-2.76.3l-2.76.31h0l-1.17-1c-.78-.62-1.52-1.22-2.25-1.76l-.81-.61c1.22-.34,2.43-.67,3.64-1,1.51-.44,3-.9,4.52-1.4a.38.38,0,0,0,.24-.42.36.36,0,0,0-.4-.3c-1.54.31-3.07.67-4.61,1s-3,.77-4.58,1.15l-.07,0c-1.27-.93-2.35-1.66-3.11-2.16s-3.86-2.8-3.86-2.8a.35.35,0,0,0-.49.12.42.42,0,0,0,.09.56h0l3.8,2.87c.74.54,1.77,1.36,3,2.32l.27.21c.33,1.79.69,3.57,1,5.36S41.92,135.74,42.38,137.64Z" transform="translate(98.93 130.61)"/><path class="k" d="M176.74,65.66c3.79,4.81,9,8.13,13.61,11a1.08,1.08,0,0,0,1.11.05,1.24,1.24,0,0,0,.66-1,27.82,27.82,0,0,0-3.69-18A24.26,24.26,0,0,0,174.55,47a1.19,1.19,0,0,0-.46,0l-.21-.1a1.1,1.1,0,0,0-1,.14,1.25,1.25,0,0,0-.49.69C170.78,53.33,172.45,60.2,176.74,65.66Z" transform="translate(98.93 130.61)"/><path class="j" d="M174.76,63.54a.39.39,0,0,0,.31.41.38.38,0,0,0,.42-.34c.27-2,.47-3.91.67-5.86.12-1.35.24-2.7.35-4l.24.35c.52.76,1.07,1.57,1.63,2.41.37.54.74,1.1,1.11,1.66-.05,1.63-.11,3.26-.13,4.9,0,1.8,0,3.6,0,5.4a.37.37,0,0,0,.33.39.37.37,0,0,0,.4-.36c.16-1.79.27-3.59.36-5.39.07-1.08.11-2.16.15-3.24.42.65.84,1.3,1.25,2s1,1.52,1.45,2.28c0,1.4,0,2.81,0,4.21s.06,2.65.12,4a.47.47,0,0,0,0,.17l0,.42a.41.41,0,0,0,.37.37.4.4,0,0,0,.41-.4v0c.08-1.5.13-3,.16-4.49,0-.78,0-1.57,0-2.36l.77,1.25c1.06,1.73,2,3.35,2.89,4.73l2.78,4.66a.33.33,0,0,0,.44.12.38.38,0,0,0,.14-.5s-1-2-2.56-4.82c-.8-1.43-1.72-3.1-2.77-4.85-.28-.48-.58-1-.88-1.47l.79.32c.8.32,1.59.65,2.39,1,1.6.61,3.2,1.22,4.82,1.76a.32.32,0,0,0,.41-.2.37.37,0,0,0-.17-.48c-1.54-.77-3.11-1.47-4.68-2.17-.78-.35-1.57-.68-2.36-1s-1.53-.66-2.3-1c-.44-.72-.89-1.45-1.35-2.17s-1.1-1.71-1.65-2.55l1.56.3c.91.16,1.82.35,2.73.5,1.83.31,3.65.62,5.49.86a.33.33,0,0,0,.37-.28.38.38,0,0,0-.25-.44c-1.8-.47-3.61-.88-5.42-1.28-.9-.21-1.81-.39-2.72-.58L180.2,57h0l-.88-1.29c-.57-.83-1.13-1.64-1.68-2.39-.22-.28-.42-.56-.62-.83,1.25,0,2.51.12,3.76.14,1.57,0,3.14.08,4.71.07a.35.35,0,0,0,.33-.33.36.36,0,0,0-.3-.41c-1.56-.18-3.12-.32-4.69-.45s-3.13-.22-4.69-.33H176c-1-1.28-1.81-2.32-2.41-3s-3-3.88-3-3.88a.34.34,0,0,0-.5-.05.43.43,0,0,0-.06.57h0L173,48.74c.57.75,1.34,1.86,2.28,3.16l.2.29c-.16,1.81-.29,3.63-.42,5.45S174.81,61.57,174.76,63.54Z" transform="translate(98.93 130.61)"/><path class="k" d="M465.85,66.13c-6.58,3.57-11.91,9.51-16.61,14.74a1.71,1.71,0,0,0-.4,1.46,1.55,1.55,0,0,0,.88,1.18,27.84,27.84,0,0,0,21.43.63,31.28,31.28,0,0,0,16.36-15.2,1.66,1.66,0,0,0,.18-.6l.18-.26A1.81,1.81,0,0,0,488,66.7a1.62,1.62,0,0,0-.64-.86C481.56,62,473.32,62.09,465.85,66.13Z" transform="translate(98.93 130.61)"/><path class="j" d="M468.85,64.14a.45.45,0,0,0-.55.3.52.52,0,0,0,.25.66c2.11,1,4.25,1.82,6.39,2.68l4.45,1.72-.46.21-3.22,1.44-2.21,1c-1.82-.56-3.64-1.14-5.47-1.67-2-.59-4-1.17-6.08-1.68a.47.47,0,0,0-.55.32.52.52,0,0,0,.29.65c2,.76,4,1.46,5.95,2.14,1.2.41,2.4.8,3.61,1.19l-2.58,1.07c-1,.42-2,.83-3,1.23-1.58-.42-3.16-.86-4.75-1.25s-3-.73-4.51-1a.37.37,0,0,0-.18-.08l-.49-.07a.49.49,0,0,0-.53.37.54.54,0,0,0,.32.67l.05,0c1.66.57,3.33,1.08,5,1.59.88.27,1.76.52,2.65.77l-1.64.64-6.22,2.4-6.09,2.27a.49.49,0,0,0-.28.56.42.42,0,0,0,.52.33s2.51-.69,6.22-1.92c1.85-.63,4-1.35,6.31-2.2l1.92-.73-.61,1c-.6,1-1.21,1.92-1.8,2.89-1.17,1.94-2.35,3.89-3.46,5.89a.49.49,0,0,0,.1.6.4.4,0,0,0,.6-.07c1.33-1.83,2.61-3.7,3.88-5.58.63-.93,1.24-1.89,1.87-2.83s1.21-1.83,1.79-2.77l2.87-1.12,3.37-1.43-.81,2c-.47,1.16-1,2.31-1.4,3.49-.92,2.33-1.82,4.67-2.66,7a.47.47,0,0,0,.2.58.4.4,0,0,0,.57-.2c1.09-2.25,2.1-4.53,3.11-6.82.52-1.14,1-2.3,1.49-3.45l1.46-3.45,0-.05,1.71-.76c1.12-.52,2.2-1,3.21-1.52l1.13-.56c-.45,1.65-.91,3.3-1.32,5-.53,2.08-1,4.16-1.52,6.25a.48.48,0,0,0,.27.55.42.42,0,0,0,.55-.27c.69-2,1.33-4.07,1.95-6.11s1.21-4.1,1.81-6.15c0,0,0-.08,0-.11,1.73-.9,3.16-1.7,4.15-2.28s5.28-2.75,5.28-2.75a.53.53,0,0,0,.21-.66.46.46,0,0,0-.62-.25h0l-5.32,2.63c-1,.53-2.49,1.21-4.25,2.06l-.38.18c-2-.77-4-1.49-6-2.23C473.23,65.58,471.05,64.82,468.85,64.14Z" transform="translate(98.93 130.61)"/></g></svg>